.
 
http://www.scenetime.com    -   SceneTime [ We been having it ] !!!


How come you press harder on a remote control when you know the battery is dead? so you better seed to get speed ;)

        Seed back for speed


...................................NFO:.................................................[img]http://ecx.images-amazon.com/images/I/91uXXranyyL._AA1500_.jpg[/img]

[url]http://www.imdb.com/title/tt0091069/[/url]

A group of crazed Aussie group of thugs, kidnap a group of students in a school house and hold them hostage.

"Fortress" explores a shocking concept which shows how easily a borderline between a victim and an attacker can be crossed. The children and the teacher, calm and peaceful by nature, when driven beyond their limits by the kidnappers, eventually respond with a cruelty and fury extending that of their oppressors. 



General

Format                           : AVI
Format/Info                      : Audio Video Interleave
File size                        : 763 MiB
Duration                         : 1h 28mn
Overall bit rate                 : 1 207 Kbps
Movie name                       : Fortress .mpg
Director                         : created.with.SUPER(C).v2010.bld.38
Writing application              : SUPER(C)   

Video

ID                               : 0
Format                           : MPEG-4 Visual
Format profile                   : Simple@L1
Format settings, BVOP            : No
Format settings, QPel            : No
Format settings, GMC             : No warppoints
Format settings, Matrix          : Default (H.263)
Codec ID                         : DIVX
Codec ID/Info                    : Project Mayo
Codec ID/Hint                    : DivX 4
Duration                         : 1h 28mn
Bit rate                         : 1 003 Kbps
Width                            : 720 pixels
Height                           : 480 pixels
Display aspect ratio             : 16:9
Frame rate                       : 29.970 fps
Standard                         : NTSC
Color space                      : YUV
Chroma subsampling               : 4:2:0
Bit depth                        : 8 bits
Scan type                        : Progressive
Compression mode                 : Lossy
Bits/(Pixel*Frame)               : 0.097
Stream size                      : 634 MiB (83%)
Writing library                  : SUPER(C)   

Audio

ID                               : 1
Format                           : AC-3
Format/Info                      : Audio Coding 3
Format profile                   : Dolby Digital
Mode extension                   : CM (complete main)
Codec ID                         : 2000
Duration                         : 1h 28mn
Bit rate mode                    : Constant
Bit rate                         : 192 Kbps
Channel(s)                       : 2 channels
Channel positions                : Front: L R
Sampling rate                    : 48.0 KHz
Bit depth                        : 16 bits
Compression mode                 : Lossy
Stream size                      : 121 MiB (16%)
Alignment                        : Aligned on interleaves
Interleave, duration             : 32 ms (0.96 video frame)